<?xml version="1.0" encoding="utf-8"?>
<!--Designed by Vexels.com - 2017 All Rights Reserved - https://vexels.com/terms-and-conditions/-->
<svg version="1.1" id="Layer_1" xmlns="http://www.w3.org/2000/svg" xmlns:xlink="http://www.w3.org/1999/xlink" x="0px" y="0px"
	 viewBox="0 0 1200 1200" enable-background="new 0 0 1200 1200" xml:space="preserve">
<g>
	<g>
		<path fill="#EF8C49" d="M257.535,1105.43H134.52c0-52.511,38.426-97.116,90.359-104.888l32.656-5.176V1105.43z"/>
		<path fill="#EF8C49" d="M713.649,782.832c0,0,140.946-109.237,71.082-277.523c-5.414-13.041,8.892-25.493,21.027-18.275
			c35.363,21.037,67.53,66.066,79.881,130.763C905.794,723.375,800.926,791.806,713.649,782.832z"/>
		<path fill="#FFB260" d="M499.943,1105.43h356.972V744.035c0-67.361-54.607-121.968-121.968-121.968H499.943V1105.43z"/>
		<path fill="#FFB260" d="M271.721,307.825h291.691c41.805,0,75.694,33.889,75.694,75.694v721.911H216.275
			c-11.182,0-20.247-9.065-20.247-20.247V383.519C196.027,341.715,229.917,307.825,271.721,307.825z"/>
		<path fill="#EF8C49" d="M327.092,1105.43h180.95V479.298c0-17.073-13.84-30.913-30.913-30.913H358.005
			c-17.073,0-30.913,13.84-30.913,30.913V1105.43z"/>
		<path opacity="0.1" fill="#540040" d="M417.567,307.825L417.567,307.825c59.042,0,112.684,23.101,152.395,60.751
			c-0.575,3.765-1.258,7.494-2.07,11.175c2.767,9.4,4.512,19.26,5.073,29.469c3.916,71.306-50.715,132.284-122.02,136.2
			c-40.031,2.198-76.803-14.059-102.055-41.355c-51.006-16.899-91.276-57.331-107.942-108.434
			C281.4,342.287,345.455,307.825,417.567,307.825z"/>
		<g>
			<path fill="#FFB260" d="M303.81,1105.43h98.456v0c0-50.241-40.728-90.969-90.969-90.969h-12.313L303.81,1105.43z"/>
			<path fill="#FFB260" d="M531.324,1105.43h-98.456v0c0-50.241,40.728-90.969,90.969-90.969h12.313L531.324,1105.43z"/>
		</g>
		<ellipse fill="#6AA73F" cx="402.266" cy="333.448" rx="151.632" ry="135.29"/>
		<g>
			<path fill="#815028" d="M428.886,169.543l128.41-98.346c7.188-5.505,17.584-3.386,22.043,4.493l66.294,117.127
				c18.823,33.255,8.6,75.411-23.365,96.351l0,0c-26.872,17.604-62.125,15.423-86.623-5.359l-107.34-91.058
				C421.055,186.601,421.337,175.325,428.886,169.543z"/>
			<path fill="#FFB260" d="M223.864,236.649c-5.436-98.992,71.587-183.44,171.239-186.563
				c93.202-2.921,173.529,68.335,181.692,161.225c3.476,39.552-6.301,76.979-25.494,108.157
				c12.51,18.649,20.342,40.788,21.663,64.838c3.915,71.306-50.715,132.284-122.021,136.2
				c-71.306,3.915-132.285-50.715-136.2-122.021c-0.09-1.633-0.116-3.255-0.144-4.876c-31.599-27.581-52.116-47.611-65.701-75.484
				c-8.926-14.816-15.741-31.075-20.038-48.394c-0.112-0.366-0.174-0.574-0.174-0.574l0.037-0.006
				C226.16,258.667,224.477,247.817,223.864,236.649z"/>
			<path opacity="0.1" fill="#540040" d="M479.169,462.886l10.903-0.599c1.556-0.085,2.76-1.429,2.674-2.985l-3.564-64.911
				c-0.085-1.556-1.429-2.76-2.985-2.674l-10.903,0.599c-1.556,0.085-2.76,1.429-2.674,2.985l3.564,64.911
				C476.269,461.768,477.613,462.972,479.169,462.886z"/>
			<path fill="#371D0E" d="M384.97,334.736l30.668-1.684c4.395-0.241,7.763-4,7.521-8.395l-3.758-68.443
				c-0.241-4.395-4-7.763-8.395-7.521l-30.668,1.684c-4.395,0.241-7.763,4-7.521,8.395l3.758,68.443
				C376.816,331.61,380.575,334.977,384.97,334.736z"/>
			<path fill="#371D0E" d="M516.839,327.495l30.667-1.684c4.395-0.241,7.763-4,7.521-8.395l-3.758-68.443
				c-0.241-4.395-4-7.763-8.395-7.521l-30.668,1.684c-4.395,0.241-7.763,4-7.521,8.395l3.758,68.443
				C508.685,324.369,512.443,327.736,516.839,327.495z"/>
			<path fill="#815028" d="M423.315,420.45l117.628-6.459c5.278-0.29,9.358-4.845,9.069-10.122l-2.03-36.977
				c-0.29-5.277-4.845-9.358-10.122-9.069l-117.628,6.459c-5.278,0.29-9.358,4.845-9.069,10.122l2.03,36.977
				C413.483,416.659,418.038,420.74,423.315,420.45z"/>
			<path fill="#815028" d="M200.871,65.111l141.145,78.988c7.901,4.422,10.07,14.807,4.6,22.021l-81.315,107.245
				c-23.087,30.45-65.846,37.75-97.729,16.686l0,0c-26.803-17.708-38.756-50.945-29.37-81.668l41.127-134.618
				C182.106,64.672,192.572,60.467,200.871,65.111z"/>
		</g>
		<path fill="#EF8C49" d="M634.904,1105.43H511.889c0-52.511,38.426-97.116,90.359-104.888l32.656-5.176V1105.43z"/>
		<path fill="#EF8C49" d="M818.137,797.743c31.393,53.139,38.777,115.107,38.777,181.296v126.391H602.716
			C608.517,969.19,701.32,852.735,818.137,797.743z"/>
		<g>
			<g>
				<circle fill="#371D0E" cx="961.542" cy="985.911" r="17.377"/>
				<circle fill="#371D0E" cx="931.808" cy="982.623" r="17.377"/>
				<circle fill="#371D0E" cx="902.847" cy="955.09" r="17.377"/>
				<circle fill="#371D0E" cx="891.262" cy="975.485" r="17.377"/>
				<circle fill="#371D0E" cx="863.845" cy="974.784" r="17.377"/>
				<circle fill="#371D0E" cx="841.306" cy="958.108" r="17.377"/>
				<circle fill="#371D0E" cx="823.929" cy="974.784" r="17.377"/>
				<circle fill="#815028" cx="802.061" cy="975.485" r="17.377"/>
				<circle fill="#815028" cx="753.405" cy="992.161" r="17.377"/>
				<circle fill="#371D0E" cx="770.782" cy="975.485" r="17.377"/>
				<circle fill="#815028" cx="870.41" cy="958.108" r="17.377"/>
				<circle fill="#815028" cx="920.224" cy="965.246" r="17.377"/>
				<circle fill="#371D0E" cx="972.354" cy="1001.718" r="17.377"/>
				<circle fill="#371D0E" cx="937.6" cy="1000" r="17.377"/>
				<circle fill="#371D0E" cx="914.431" cy="992.161" r="17.377"/>
				<circle fill="#371D0E" cx="949.185" cy="974.784" r="17.377"/>
				<circle fill="#815028" cx="978.919" cy="1000" r="17.377"/>
				<circle fill="#371D0E" cx="863.845" cy="1000" r="17.377"/>
				<circle fill="#371D0E" cx="891.262" cy="992.861" r="17.377"/>
				<circle fill="#371D0E" cx="814.368" cy="992.161" r="17.377"/>
				<circle fill="#815028" cx="841.306" cy="985.911" r="17.377"/>
				<circle fill="#371D0E" cx="784.684" cy="1000" r="17.377"/>
			</g>
			<g>
				<path fill="#6AA73F" d="M712.642,1011.498c6.026-10.011,16.857-16.132,28.542-16.132h32.301h180.72h32.301
					c11.685,0,22.515,6.122,28.542,16.132l49.279,81.857c3.196,5.31-0.628,12.075-6.825,12.075H954.205h-180.72H670.189
					c-6.197,0-10.021-6.765-6.825-12.075L712.642,1011.498z"/>
				<path opacity="0.1" fill="#540040" d="M685.505,1056.577h356.681l22.141,36.778c3.196,5.31-0.628,12.075-6.825,12.075H670.189
					c-6.197,0-10.021-6.766-6.825-12.075L685.505,1056.577z"/>
			</g>
		</g>
	</g>
	<path fill="#E9E0E3" d="M149.748,1150h892.547c8.41,0,15.228-6.818,15.228-15.228v-29.342H134.52v29.342
		C134.52,1143.182,141.338,1150,149.748,1150z"/>
</g>
</svg>
