<?xml version="1.0" encoding="utf-8"?>
<!--Designed by Vexels.com - 2017 All Rights Reserved - https://vexels.com/terms-and-conditions/-->
<svg version="1.1" id="Layer_1" xmlns="http://www.w3.org/2000/svg" xmlns:xlink="http://www.w3.org/1999/xlink" x="0px" y="0px"
	 viewBox="0 0 1200 1200" enable-background="new 0 0 1200 1200" xml:space="preserve">
<g>
	<path fill="#EF8C49" d="M222.651,450.74c0,0-133.334-46.44-123.338-190.363c0.775-11.153-13.103-16.891-20.39-8.413
		c-21.236,24.707-34.022,66.615-26.976,118.287C63.445,454.573,159.41,479.486,222.651,450.74z"/>
	<path fill="#815028" d="M687.747,574.055l-5.743,102.939c-0.361,6.474,4.972,11.347,11.327,10.251l96.151-16.582
		c27.888-4.81,45.938-29.623,41.259-55.34v0c-3.738-20.544-21.214-36.046-42.675-38.816l-88.692-11.447
		C693.679,564.324,688.048,568.666,687.747,574.055z"/>
	<path fill="#EF8C49" d="M331.709,485.201c-68.818-15.79-82.458,27.443-94.989,89.234h-65.182V920.19h85.634h1.955h37.929
		c0-17.867-12.717-32.761-29.593-36.133l18.301-79.327c77.653,4.765,149.611-47.134,167.582-125.458
		C473.348,592.093,418.89,505.204,331.709,485.201z"/>
	<path fill="#EF8C49" d="M400.499,762.22l36.351,42.666c62.33,73.159,153.606,115.305,249.716,115.305h289.555v0
		c0-45.396-33.219-83.957-78.115-90.676l-264.824-41.972L468.131,637.017L400.499,762.22z"/>
	<circle fill="#FFB260" cx="277.393" cy="574.436" r="195.745"/>
	<path fill="#FFB260" d="M363.456,679.273c-20.003,87.18-106.892,141.639-194.072,121.636
		c-87.18-20.003-53.378-86.641-33.375-173.821S154.64,465.199,241.82,485.201C329,505.204,383.459,592.093,363.456,679.273z"/>
	<polygon fill="#FFB260" points="169.237,920.19 81.648,920.19 81.648,574.436 249.006,574.436 	"/>
	<polygon fill="#FFB260" points="387.56,412.623 745.19,728.709 745.19,846.488 456.549,805.047 321.225,599.318 	"/>
	<path fill="#FFB260" d="M167.282,920.19h39.884v0c0-20.352-16.499-36.851-36.851-36.851h-4.988L167.282,920.19z"/>
	<path fill="#6AA73F" d="M740.366,703.775c-5.014-66.476-60.499-118.864-128.258-118.864c-71.061,0-128.667,57.606-128.667,128.667
		c0,64.743,47.825,118.297,110.07,127.311c6.848,2.24,14.142,3.467,21.713,3.467h121.559c38.685,0,70.336-31.651,70.336-70.336v0
		C807.121,736.536,777.404,705.656,740.366,703.775z"/>
	<path fill="#FFB260" d="M787.234,698.099c-5.216-69.16-62.941-123.663-133.436-123.663c-73.93,0-133.862,59.932-133.862,133.862
		c0,67.357,49.756,123.073,114.515,132.451c7.124,2.331,14.713,3.607,22.59,3.607h126.467c40.247,0,73.176-32.929,73.176-73.176v0
		C856.684,732.183,825.767,700.056,787.234,698.099z"/>
	<path opacity="0.1" fill="#540040" d="M593.512,840.889c6.848,2.24,14.142,3.467,21.713,3.467h41.816h79.743h46.723
		c27.875,0,52.225-15.802,64.567-38.886l-249.127-40.135c-27.843-1.454-53.796-14.531-71.532-36.043l-42.379-35.85
		c-1.032,6.563-1.595,13.282-1.595,20.136C483.442,778.32,531.267,831.874,593.512,840.889z"/>
	<path fill="#FFB260" d="M308.911,762.22l36.351,42.666c62.33,73.159,153.606,115.305,249.716,115.305h289.555v0
		c0-45.396-33.219-83.957-78.115-90.676l-264.824-41.972L376.544,637.017L308.911,762.22z"/>
	<path opacity="0.1" fill="#540040" d="M788.603,774.604h-6.649c-1.669,0-3.035-1.366-3.035-3.035v-48.12
		c0-1.669,1.366-3.035,3.035-3.035h6.649c1.669,0,3.035,1.366,3.035,3.035v48.12C791.638,773.238,790.272,774.604,788.603,774.604z"
		/>
	<path fill="#371D0E" d="M788.315,727.995h-18.79c-4.736,0-8.576-3.84-8.576-8.576v-47.935c0-4.736,3.84-8.576,8.576-8.576h18.79
		c4.736,0,8.576,3.84,8.576,8.576v47.935C796.891,724.156,793.051,727.995,788.315,727.995z"/>
	<path fill="#815028" d="M815.077,739.768h-84.478c-5.66,0-10.291-4.631-10.291-10.291v-22.548c0-5.66,4.631-10.291,10.291-10.291
		h84.478c5.66,0,10.291,4.631,10.291,10.291v22.548C825.368,735.137,820.737,739.768,815.077,739.768z"/>
	<path fill="#815028" d="M615.267,637.114l-86.846-59.253c-4.862-3.317-11.533-1.571-14.147,3.702l-38.852,78.381
		c-11.031,22.254-2.894,49.25,18.598,61.702h0c18.068,10.468,40.871,7.796,56.029-6.565l66.421-62.924
		C620.958,647.906,620.373,640.597,615.267,637.114z"/>
	<path fill="#E9E0E3" d="M960.893,952.101H96.877c-8.41,0-15.228-6.818-15.228-15.228V920.19h894.473v16.683
		C976.121,945.283,969.303,952.101,960.893,952.101z"/>
	<path fill="#E9E0E3" d="M1132.157,952.101H1036.1c-4.205,0-7.614-3.409-7.614-7.614v-16.683c0-4.205,3.409-7.614,7.614-7.614
		h96.057c4.205,0,7.614,3.409,7.614,7.614v16.683C1139.771,948.692,1136.362,952.101,1132.157,952.101z"/>
	<g>
		<g>
			<path fill="#FFAC2E" d="M1018.467,861.475c24.823-12.552,45.039-30.222,49.956-58.952
				C1041.201,809.184,1020.634,832.755,1018.467,861.475z"/>
			<path fill="#EBE7E8" d="M1084.128,800.624c-5.414,0-10.671,0.667-15.705,1.899c-4.917,28.73-25.133,46.4-49.956,58.952
				c-0.125,1.659-0.21,3.329-0.21,5.021c0,4.162,0.404,8.228,1.142,12.176c34.337-12.697,59.683-42.332,66.007-78.016
				C1084.979,800.648,1084.557,800.624,1084.128,800.624z"/>
			<path fill="#EBE7E8" d="M1149.715,872.499c0.179-1.979,0.285-3.979,0.285-6.004c0-2.452-0.146-4.869-0.407-7.251
				c-44.225-0.513-84.619,26.045-94.073,66.589c3.677,1.777,7.552,3.201,11.57,4.277c2.157-9.037,6.432-17.525,12.41-24.998
				C1095.579,882.333,1122.481,871.467,1149.715,872.499z"/>
			<path fill="#FFAC2E" d="M1079.5,905.112c-5.978,7.473-10.253,15.96-12.41,24.998c5.437,1.456,11.141,2.257,17.038,2.257
				c34.355,0,62.552-26.303,65.587-59.868C1122.481,871.467,1095.579,882.333,1079.5,905.112z"/>
			<path fill="#FFAC2E" d="M1149.593,859.244c-3.567-32.548-30.84-57.951-64.187-58.588c-6.324,35.684-31.67,65.318-66.007,78.016
				c3.895,20.832,17.593,38.206,36.121,47.162C1064.974,885.289,1105.368,858.731,1149.593,859.244z"/>
		</g>
		<path opacity="0.1" fill="#540040" d="M1149.593,859.244c-3.518-32.102-30.103-57.237-62.826-58.531
			c19.141,6.261,33.417,23.263,35.678,43.896c0.207,1.89,0.323,3.807,0.323,5.752c0,1.607-0.084,3.193-0.226,4.763
			c-2.407,26.626-24.777,47.493-52.03,47.493c-4.678,0-9.204-0.635-13.517-1.791c-3.187-0.854-6.262-1.983-9.178-3.393
			c-14.698-7.104-25.564-20.887-28.655-37.413c-0.125-0.667-0.231-1.34-0.331-2.015c-0.148,1.148-0.277,2.303-0.365,3.469
			c-0.125,1.659-0.21,3.329-0.21,5.021c0,4.162,0.404,8.228,1.142,12.176c3.895,20.832,17.593,38.206,36.121,47.162
			c3.677,1.777,7.552,3.201,11.57,4.277c5.437,1.456,11.141,2.257,17.038,2.257c34.355,0,62.552-26.303,65.587-59.868
			c0.179-1.979,0.285-3.979,0.285-6.004C1150,864.043,1149.854,861.626,1149.593,859.244z"/>
	</g>
	<path fill="#371D0E" d="M685.19,727.995H666.4c-4.736,0-8.576-3.84-8.576-8.576v-47.935c0-4.736,3.84-8.576,8.576-8.576h18.79
		c4.736,0,8.576,3.84,8.576,8.576v47.935C693.766,724.156,689.926,727.995,685.19,727.995z"/>
</g>
</svg>
