<?xml version="1.0" encoding="utf-8"?>
<!--Designed by Vexels.com - 2017 All Rights Reserved - https://vexels.com/terms-and-conditions/-->
<svg version="1.1" id="Layer_1" xmlns="http://www.w3.org/2000/svg" xmlns:xlink="http://www.w3.org/1999/xlink" x="0px" y="0px"
	 viewBox="0 0 1200 1200" enable-background="new 0 0 1200 1200" xml:space="preserve">
<g>
	<path fill="#EF8C49" d="M348.827,1084.902H212.936c0-58.007,42.448-107.281,99.817-115.867l36.075-5.717V1084.902z"/>
	<path fill="#EF8C49" d="M871.888,711.275c0,0,193.722-7.517,234.378,157.26c3.151,12.769,23.651,12.995,30.115,0.311
		c18.836-36.961,20.059-89.33-8.602-143.763C1081.008,636.255,944.766,651.147,871.888,711.275z"/>
	<path fill="#FFB260" d="M616.608,1084.902h394.336V672.913c0-67.361-54.607-121.968-121.968-121.968H616.608V1084.902z"/>
	<path fill="#FFB260" d="M356.575,203.811h338.068c41.805,0,75.694,33.889,75.694,75.694v805.397H301.129
		c-11.182,0-20.247-9.065-20.247-20.247v-785.15C280.881,237.7,314.771,203.811,356.575,203.811z"/>
	<path fill="#EF8C49" d="M425.664,1084.902h199.89V389.996c0-17.073-13.84-30.913-30.913-30.913H456.577
		c-17.073,0-30.913,13.84-30.913,30.913V1084.902z"/>
	<g>
		<path fill="#FFB260" d="M399.945,1084.902h108.762v0c0-55.5-44.991-100.491-100.491-100.491h-13.602L399.945,1084.902z"/>
		<path fill="#FFB260" d="M651.274,1084.902H542.512v0c0-55.5,44.991-100.491,100.491-100.491h13.602L651.274,1084.902z"/>
	</g>
	<ellipse fill="#6AA73F" cx="525.61" cy="282.49" rx="167.504" ry="165.732"/>
	<path fill="#EF8C49" d="M765.696,1084.902H629.805c0-58.007,42.448-107.281,99.817-115.867l36.075-5.717V1084.902z"/>
	<path fill="#EF8C49" d="M968.101,745.009c34.679,58.701,42.843,127.155,42.843,200.272v139.621H730.138
		C736.547,934.402,839.056,805.758,968.101,745.009z"/>
	<path fill="#E9E0E3" d="M228.164,1134.137H995.24c8.41,0,15.228-6.818,15.228-15.228v-34.007H212.936v34.007
		C212.936,1127.319,219.754,1134.137,228.164,1134.137z"/>
	<path fill="#E9E0E3" d="M68.132,327.269C55.434,462.68,341.919,662.303,477.925,662.303s206.312-111.357,198.63-341.177
		C672.01,185.196,560.298,65.863,424.292,65.863S82.68,172.119,68.132,327.269z"/>
	<circle fill="#E9E0E3" cx="365.353" cy="399.135" r="315.353"/>
	<circle fill="#DDCFD4" cx="365.353" cy="399.135" r="297.221"/>
	<g>
		<path fill="#815028" d="M138.344,293.153l124.125-88.488c-25.548,29.894-42.344,67.606-46.005,109.256
			c-3.733,42.48,6.403,82.72,26.452,116.575c-1.639-1.469-3.241-2.999-4.779-4.625L135.942,317.888
			C129.067,310.624,130.2,298.959,138.344,293.153z"/>
		<path fill="#FFB260" d="M242.917,430.496c0.572,0.966,1.122,1.947,1.71,2.903c-13.82,20.602-22.471,45.057-23.93,71.624
			c-4.325,78.769,56.024,146.131,134.793,150.456c78.77,4.325,146.131-56.023,150.457-134.793c0.099-1.804,0.127-3.595,0.159-5.387
			c17.126-14.948,31.289-27.888,43.063-40.828c-12.146,0.877-24.593-0.961-36.392-5.851v0
			c-38.997-16.159-58.756-59.813-45.16-99.777L515.5,228.092c3.221-9.469,14.069-13.905,23.002-9.407l22.666,11.413
			c-32.063-39.91-73.677-71.814-121.388-92.23c-7.404-1.088-14.936-1.807-22.605-2.048c-61.167-1.917-117.312,25.089-154.706,68.844
			c-25.548,29.894-42.344,67.606-46.005,109.256C212.731,356.4,222.867,396.641,242.917,430.496z M388.253,401.427l1.151-20.966
			c0.105-1.908,0.429-3.75,0.922-5.518c11.602,8.473,24.052,16.33,38.824,19.943c3.646,0.892,7.298,1.608,10.957,2.182l-0.383,6.968
			c-0.612,11.149-8.132,21.055-18.971,23.738C402.793,432.22,387.328,418.269,388.253,401.427z M247.051,508.436l0.244-4.452
			c0.87-15.839,14.54-28.086,30.379-27.216l93.545,5.137c15.838,0.87,28.086,14.54,27.216,30.378l-0.244,4.452
			c-0.87,15.839-14.54,28.086-30.379,27.216l-38.117-2.093l-1.793,32.647c-0.256,4.67-4.288,8.282-8.958,8.025l-1.313-0.072
			c-4.67-0.256-8.282-4.287-8.025-8.958l1.793-32.647l-37.132-2.039C258.428,537.945,246.181,524.274,247.051,508.436z
			 M242.582,393.428l0.067-1.229c18.665-1.802,36.496-7.581,52.561-17.225l-1.153,20.991c-0.651,11.858-9.148,22.112-20.838,24.208
			C256.066,423.248,241.689,409.685,242.582,393.428z"/>
		<path fill="#FFB260" d="M327.902,574.505c-0.256,4.67-4.288,8.282-8.958,8.025l-1.313-0.072c-4.67-0.256-8.282-4.287-8.025-8.958
			l1.793-32.647l18.296,1.005L327.902,574.505z"/>
		<path opacity="0.1" fill="#540040" d="M327.902,574.505c-0.256,4.67-4.288,8.282-8.958,8.025l-1.313-0.072
			c-4.67-0.256-8.282-4.287-8.025-8.958l1.793-32.647l18.296,1.005L327.902,574.505z"/>
		<path fill="#371D0E" d="M388.253,401.427l1.151-20.966c0.105-1.908,0.429-3.75,0.922-5.518
			c11.602,8.473,24.052,16.33,38.824,19.943c3.646,0.892,7.298,1.608,10.957,2.182l-0.383,6.968
			c-0.612,11.149-8.132,21.055-18.971,23.738C402.793,432.22,387.328,418.269,388.253,401.427z"/>
		<path fill="#371D0E" d="M295.21,374.974l-1.153,20.991c-0.651,11.858-9.148,22.112-20.838,24.208
			c-17.154,3.075-31.53-10.488-30.638-26.745l0.067-1.229C261.315,390.397,279.145,384.618,295.21,374.974z"/>
		<path fill="#815028" d="M247.295,503.983c0.87-15.839,14.54-28.086,30.379-27.216l93.545,5.137
			c15.838,0.87,28.086,14.54,27.216,30.378l-0.244,4.452c-0.87,15.839-14.54,28.086-30.379,27.216l-38.117-2.093l-18.296-1.005
			l-37.132-2.039c-15.839-0.87-28.086-14.54-27.216-30.379L247.295,503.983z"/>
		<path fill="#815028" d="M512.776,468.621L512.776,468.621c-38.997-16.159-58.756-59.814-45.16-99.777L515.5,228.092
			c3.221-9.469,14.069-13.905,23.002-9.407l22.666,11.413c40.955,50.979,66.302,115.017,68.81,184.885l-24.284,30.021
			c-14.286,17.66-34.925,27.908-56.526,29.468C537.022,475.349,524.575,473.511,512.776,468.621z"/>
	</g>
	<path opacity="0.1" fill="#540040" d="M549.36,477.873c0-146.131-118.462-264.594-264.593-264.594
		c-81.037,0-153.551,36.443-202.087,93.82c38.752-119.097,150.649-205.185,282.673-205.185
		c164.151,0,297.221,133.071,297.221,297.221c0,134.44-89.268,248.013-211.758,284.728
		C510.911,635.359,549.36,561.112,549.36,477.873z"/>
</g>
</svg>
