<?xml version="1.0" encoding="utf-8"?>
<!--Designed by Vexels.com - 2017 All Rights Reserved - https://vexels.com/terms-and-conditions/-->
<svg version="1.1" id="Layer_1" xmlns="http://www.w3.org/2000/svg" xmlns:xlink="http://www.w3.org/1999/xlink" x="0px" y="0px"
	 viewBox="0 0 1200 1200" enable-background="new 0 0 1200 1200" xml:space="preserve">
<g>
	<g>
		<path fill="#EF8C49" d="M125.788,628.997l335.319-38.675v131.756c-7.696,0.601-15.434,0.932-23.208,0.932H50v0
			C50,675.944,82.23,635.964,125.788,628.997z"/>
		<path fill="#EF8C49" d="M1086.984,638.159l-182.925-34.906l-462.377,23.003l-17.52,95.913c6.399,0.542,492.73,0.841,499.195,0.841
			H1150v0C1150,680.531,1123.202,644.447,1086.984,638.159z"/>
		<path fill="#6AA73F" d="M513.747,535.828c0,0,49.891,4.024,60.635,46.19c10.743,42.166-73.504,110.284-73.504,110.284
			l-38.905-14.957L513.747,535.828z"/>
		<g>
			<path fill="#815028" d="M270.949,507.66l99.752-1.173c6.273-0.074,10.757,5.289,9.428,11.386l-20.119,92.241
				c-5.836,26.754-30.589,43.147-55.25,37.53l0,0c-19.7-4.487-33.943-22.04-35.707-42.903l-7.293-86.222
				C261.29,512.98,265.726,507.721,270.949,507.66z"/>
			<path fill="#FFB260" d="M274.26,574.225c5.047-66.919,60.902-119.657,129.113-119.657c71.535,0,129.525,57.99,129.525,129.525
				c0,65.175-48.144,119.086-110.805,128.16c-6.893,2.255-14.237,3.491-21.858,3.491h-122.37c-38.943,0-70.805-31.862-70.805-70.806
				v0C207.06,607.204,236.975,576.119,274.26,574.225z"/>
			<path opacity="0.1" fill="#540040" d="M273.033,648.251h6.237c1.669,0,3.035-1.366,3.035-3.035v-46.365
				c0-1.669-1.366-3.035-3.035-3.035h-6.237c-1.669,0-3.035,1.366-3.035,3.035v46.365
				C269.999,646.886,271.364,648.251,273.033,648.251z"/>
			<path fill="#371D0E" d="M295.323,578.686c-12.848,0-23.299-10.451-23.299-23.299c0-2.86,2.317-5.177,5.177-5.177
				s5.177,2.317,5.177,5.177c0,7.138,5.806,12.944,12.944,12.944s12.944-5.806,12.944-12.944c0-2.86,2.317-5.177,5.177-5.177
				s5.177,2.317,5.177,5.177C318.622,568.235,308.171,578.686,295.323,578.686z"/>
			<path fill="#815028" d="M255.49,609.712h65.4c5.66,0,10.291-4.631,10.291-10.291v-14.939c0-5.66-4.631-10.291-10.291-10.291
				h-65.4c-5.66,0-10.291,4.631-10.291,10.291v14.939C245.199,605.081,249.83,609.712,255.49,609.712z"/>
		</g>
		<path fill="#FFB260" d="M825.286,512.595c-40.761,0-78.337,13.671-108.449,36.686l-118.748,8.854
			c-38.549,2.874-73.067,25.046-91.832,58.986l-24.556,44.414h166.992h166.992h186.195
			C987.21,576.925,913.732,512.595,825.286,512.595z"/>
		<path opacity="0.1" fill="#540040" d="M216.651,609.612c-4.793,8.562-6.46,14.541-8.422,22.369
			c-5.617,22.406-5.421,47.907-2.652,71.324h272.092c7.775,0,15.512-0.31,23.208-0.872V579.139L216.651,609.612z"/>
		<path fill="#FFB260" d="M165.559,635.035l335.319-36.191v123.294c-7.696,0.562-15.434,0.872-23.208,0.872H89.77v0
			C89.77,678.967,122,641.554,165.559,635.035z"/>
		<path fill="#FFB260" d="M1043.423,641.549l-182.925-33.511l-462.377,22.084l-17.52,92.081c6.399,0.521,492.73,0.808,499.195,0.808
			h226.644v0C1106.439,682.228,1079.641,647.585,1043.423,641.549z"/>
		<path fill="#815028" d="M431.021,516.421l101.499-6.821c5.682-0.382,10.39,4.347,9.983,10.027l-6.041,84.432
			c-1.715,23.972-21.744,42.497-45.777,42.34h0c-20.204-0.132-37.912-13.545-43.512-32.959l-24.534-85.063
			C420.982,522.631,425.054,516.822,431.021,516.421z"/>
		<path fill="#EF8C49" d="M949.167,562.507c0,0-79.794-57.291-156.222,6.402c-5.923,4.936-14.733-0.506-12.935-8.003
			c5.24-21.847,23.507-45.915,55.24-62.837C887.035,470.454,939.706,515.544,949.167,562.507z"/>
		<path fill="#371D0E" d="M367.628,578.686c-12.848,0-23.299-10.451-23.299-23.299c0-2.86,2.317-5.177,5.177-5.177
			s5.177,2.317,5.177,5.177c0,7.138,5.806,12.944,12.944,12.944s12.944-5.806,12.944-12.944c0-2.86,2.317-5.177,5.177-5.177
			s5.177,2.317,5.177,5.177C390.926,568.235,380.475,578.686,367.628,578.686z"/>
	</g>
	<path fill="#E9E0E3" d="M1136.322,745.432H63.678c-7.554,0-13.678-6.124-13.678-13.678v-8.744h1100v8.744
		C1150,739.308,1143.876,745.432,1136.322,745.432z"/>
</g>
</svg>
